<?xml version="1.0" encoding="UTF-8"?>
<svg width="512" height="512" viewBox="0 0 512 512" xmlns="http://www.w3.org/2000/svg">
  <!-- TaskMaster App Icon - Modern Gradient Design -->
  <defs>
    <!-- Main gradient -->
    <linearGradient id="mainGradient" x1="0%" y1="0%" x2="100%" y2="100%">
      <stop offset="0%" style="stop-color:#667eea;stop-opacity:1" />
      <stop offset="50%" style="stop-color:#764ba2;stop-opacity:1" />
      <stop offset="100%" style="stop-color:#f093fb;stop-opacity:1" />
    </linearGradient>
    
    <!-- Task list gradient -->
    <linearGradient id="taskGradient" x1="0%" y1="0%" x2="100%" y2="100%">
      <stop offset="0%" style="stop-color:#4facfe;stop-opacity:1" />
      <stop offset="100%" style="stop-color:#00f2fe;stop-opacity:1" />
    </linearGradient>
    
    <!-- Shadow -->
    <filter id="dropshadow" x="-50%" y="-50%" width="200%" height="200%">
      <feGaussianBlur in="SourceAlpha" stdDeviation="8"/>
      <feOffset dx="0" dy="4" result="offset" />
      <feComponentTransfer>
        <feFuncA type="linear" slope="0.3"/>
      </feComponentTransfer>
      <feMerge> 
        <feMergeNode/>
        <feMergeNode in="SourceGraphic"/> 
      </feMerge>
    </filter>
  </defs>
  
  <!-- Background Circle -->
  <circle cx="256" cy="256" r="240" fill="url(#mainGradient)" filter="url(#dropshadow)"/>
  
  <!-- Main Task Board -->
  <rect x="160" y="120" width="192" height="272" rx="16" ry="16" fill="white" opacity="0.95"/>
  
  <!-- Header Bar -->
  <rect x="160" y="120" width="192" height="48" rx="16" ry="16" fill="url(#taskGradient)"/>
  <rect x="160" y="152" width="192" height="16" fill="url(#taskGradient)"/>
  
  <!-- TaskMaster Title -->
  <text x="256" y="148" text-anchor="middle" fill="white" font-family="Arial, sans-serif" font-size="16" font-weight="bold">TaskMaster</text>
  
  <!-- Task Items -->
  <!-- Completed Task 1 -->
  <rect x="180" y="188" width="152" height="28" rx="4" ry="4" fill="#e8f5e8" stroke="#4caf50" stroke-width="1"/>
  <circle cx="192" cy="202" r="6" fill="#4caf50"/>
  <path d="M189 202 L191 204 L195 200" stroke="white" stroke-width="2" fill="none" stroke-linecap="round"/>
  <rect x="208" y="196" width="80" height="4" fill="#4caf50" opacity="0.6"/>
  <rect x="208" y="204" width="60" height="4" fill="#4caf50" opacity="0.4"/>
  
  <!-- Active Task 2 -->
  <rect x="180" y="228" width="152" height="28" rx="4" ry="4" fill="#fff3e0" stroke="#ff9800" stroke-width="1"/>
  <circle cx="192" cy="242" r="6" fill="white" stroke="#ff9800" stroke-width="2"/>
  <rect x="208" y="236" width="100" height="4" fill="#ff9800"/>
  <rect x="208" y="244" width="75" height="4" fill="#ff9800" opacity="0.6"/>
  
  <!-- Pending Task 3 -->
  <rect x="180" y="268" width="152" height="28" rx="4" ry="4" fill="#f5f5f5" stroke="#9e9e9e" stroke-width="1"/>
  <circle cx="192" cy="282" r="6" fill="white" stroke="#9e9e9e" stroke-width="2"/>
  <rect x="208" y="276" width="90" height="4" fill="#9e9e9e"/>
  <rect x="208" y="284" width="70" height="4" fill="#9e9e9e" opacity="0.6"/>
  
  <!-- Pending Task 4 -->
  <rect x="180" y="308" width="152" height="28" rx="4" ry="4" fill="#f5f5f5" stroke="#9e9e9e" stroke-width="1"/>
  <circle cx="192" cy="322" r="6" fill="white" stroke="#9e9e9e" stroke-width="2"/>
  <rect x="208" y="316" width="85" height="4" fill="#9e9e9e"/>
  <rect x="208" y="324" width="55" height="4" fill="#9e9e9e" opacity="0.6"/>
  
  <!-- Progress Indicator -->
  <rect x="180" y="352" width="152" height="8" rx="4" ry="4" fill="#e0e0e0"/>
  <rect x="180" y="352" width="60" height="8" rx="4" ry="4" fill="url(#taskGradient)"/>
  
  <!-- Floating Action Button -->
  <circle cx="320" cy="360" r="20" fill="url(#taskGradient)" filter="url(#dropshadow)"/>
  <path d="M312 360 L328 360 M320 352 L320 368" stroke="white" stroke-width="3" stroke-linecap="round"/>
</svg>